<svg width="104" height="104" viewBox="0 0 104 104" fill="none" xmlns="http://www.w3.org/2000/svg">
<path d="M8.66663 82.3333V32.7124C8.66663 26.4557 8.66663 23.3273 9.72101 20.8714C11.0357 17.8094 13.476 15.369 16.538 14.0544C18.9939 13 22.0915 13 28.379 13H30.5201C33.1421 13 35.6232 14.1871 37.2684 16.2287L45.1425 26M45.1425 26H69.3333C75.4004 26 78.4342 26 80.7516 27.1807C82.79 28.2194 84.4471 29.8767 85.4858 31.9151C86.6666 34.2325 86.6666 37.2661 86.6666 43.3333V47.6667M45.1425 26H30.3333" stroke="#009689" stroke-width="1.5" stroke-linecap="round" stroke-linejoin="round"/>
<path d="M13.6847 67.2294L14.9778 64.011C18.1579 56.0949 19.748 52.1373 23.0637 49.9021C26.3794 47.667 30.6608 47.667 39.2234 47.667H74.1515C85.8017 47.667 91.6266 47.667 94.2162 51.4747C96.8053 55.2828 94.6421 60.6679 90.3153 71.4379L89.0222 74.6563C85.842 82.5724 84.2521 86.5301 80.9362 88.7652C77.6204 91.0003 73.339 91.0003 64.7764 91.0003H29.8485C18.1983 91.0003 12.3731 91.0003 9.78384 87.1926C7.19455 83.3845 9.35792 77.9995 13.6847 67.2294Z" fill="#009689" stroke="#009689" stroke-width="1.5" stroke-linecap="round" stroke-linejoin="round"/>
</svg>
