<svg width="48" height="48" viewBox="0 0 48 48" fill="none" xmlns="http://www.w3.org/2000/svg">
<path d="M0 10C0 4.47715 4.47715 0 10 0H38C43.5229 0 48 4.47715 48 10V38C48 43.5229 43.5228 48 38 48H10C4.47715 48 0 43.5228 0 38V10Z" fill="#009689"/>
<path d="M14.6667 26.3334C14.4459 26.3341 14.2294 26.2722 14.0424 26.1548C13.8555 26.0375 13.7056 25.8694 13.6103 25.6703C13.515 25.4711 13.4782 25.249 13.5041 25.0298C13.53 24.8105 13.6176 24.6031 13.7567 24.4317L25.3067 12.5317C25.3933 12.4317 25.5114 12.3641 25.6415 12.34C25.7716 12.316 25.906 12.3369 26.0227 12.3993C26.1394 12.4617 26.2313 12.5619 26.2836 12.6835C26.3358 12.8051 26.3451 12.9408 26.31 13.0684L24.07 20.0917C24.0039 20.2685 23.9818 20.4586 24.0054 20.6459C24.0289 20.8331 24.0976 21.0118 24.2054 21.1667C24.3133 21.3216 24.4571 21.448 24.6245 21.535C24.7919 21.6221 24.9779 21.6673 25.1667 21.6667H33.3333C33.5541 21.6659 33.7706 21.7278 33.9575 21.8452C34.1445 21.9626 34.2944 22.1306 34.3897 22.3298C34.485 22.5289 34.5218 22.751 34.4959 22.9703C34.47 23.1895 34.3824 23.3969 34.2433 23.5684L22.6933 35.4684C22.6067 35.5684 22.4886 35.6359 22.3585 35.66C22.2284 35.6841 22.094 35.6632 21.9773 35.6008C21.8606 35.5384 21.7686 35.4381 21.7164 35.3166C21.6642 35.195 21.6549 35.0593 21.69 34.9317L23.93 27.9084C23.996 27.7316 24.0182 27.5414 23.9946 27.3542C23.9711 27.167 23.9024 26.9882 23.7946 26.8334C23.6867 26.6785 23.5429 26.5521 23.3755 26.465C23.2081 26.3779 23.022 26.3327 22.8333 26.3334H14.6667Z" stroke="white" stroke-width="2.33333" stroke-linecap="round" stroke-linejoin="round"/>
</svg>
