<svg width="263" height="36" viewBox="0 0 263 36" fill="none" xmlns="http://www.w3.org/2000/svg">
<path d="M7.66621 2.15791C7.66621 1.32432 8.34041 0.648568 9.17207 0.648568H13.8266C14.6582 0.648568 15.3324 1.32432 15.3324 2.15791V6.85206C15.3324 7.68565 14.6582 8.36141 13.8266 8.36141H7.66621V2.15791Z" fill="#FF6701"/>
<path d="M0 9.87075C0 9.03716 0.674195 8.36141 1.50586 8.36141H7.66621V14.5649C7.66621 15.3985 6.99202 16.0742 6.16036 16.0742H1.50586C0.674196 16.0742 0 15.3985 0 14.5649V9.87075Z" fill="#FF6701"/>
<path d="M43.3629 8.36141H49.5233C50.355 8.36141 51.0292 9.03716 51.0292 9.87075V14.5649C51.0292 15.3985 50.355 16.0742 49.5233 16.0742H44.8688C44.0371 16.0742 43.3629 15.3985 43.3629 14.5649V8.36141Z" fill="#FF6701"/>
<path d="M43.3629 21.5442C43.3629 20.7107 44.0371 20.0349 44.8688 20.0349H49.5233C50.355 20.0349 51.0292 20.7107 51.0292 21.5442V26.2384C51.0292 27.072 50.355 27.7477 49.5233 27.7477H43.3629V21.5442Z" fill="#FF6701"/>
<path d="M35.6967 29.2571C35.6967 28.4235 36.3709 27.7477 37.2026 27.7477H43.3629V33.9512C43.3629 34.7848 42.6888 35.4606 41.8571 35.4606H37.2026C36.3709 35.4606 35.6967 34.7848 35.6967 33.9512V29.2571Z" fill="#FF6701"/>
<path d="M7.66621 27.7477H13.8266C14.6582 27.7477 15.3324 28.4235 15.3324 29.2571V33.9512C15.3324 34.7848 14.6582 35.4606 13.8266 35.4606H9.17207C8.34041 35.4606 7.66621 34.7848 7.66621 33.9512V27.7477Z" fill="#FF6701"/>
<path d="M0 21.5442C0 20.7107 0.674195 20.0349 1.50586 20.0349H6.16036C6.99202 20.0349 7.66621 20.7107 7.66621 21.5442V27.7477H1.50586C0.674196 27.7477 0 27.072 0 26.2384V21.5442Z" fill="#FF6701"/>
<path d="M35.6967 2.15791C35.6967 1.32432 36.3709 0.648568 37.2026 0.648568H41.8571C42.6888 0.648568 43.3629 1.32432 43.3629 2.15791V8.36141H37.2026C36.3709 8.36141 35.6967 7.68565 35.6967 6.85206V2.15791Z" fill="#FF6701"/>
<path d="M67.3217 26.9108C65.5869 26.9108 64.0088 26.5486 62.5872 25.8241C61.1898 25.0996 60.0815 24.0491 59.2623 22.6726C58.4431 21.2961 58.0335 19.6297 58.0335 17.6736V17.1665C58.0335 15.2104 58.4431 13.5441 59.2623 12.1675C60.0815 10.791 61.1898 9.74051 62.5872 9.01603C64.0088 8.29154 65.5869 7.9293 67.3217 7.9293C69.0323 7.9293 70.502 8.23117 71.7308 8.83491C72.9596 9.43865 73.9474 10.2718 74.6943 11.3344C75.4653 12.3728 75.9713 13.5561 76.2122 14.8844L71.8031 15.8262C71.7067 15.1017 71.4899 14.4497 71.1526 13.8701C70.8152 13.2905 70.3334 12.8317 69.7069 12.4936C69.1046 12.1555 68.3456 11.9864 67.4301 11.9864C66.5145 11.9864 65.6833 12.1917 64.9364 12.6022C64.2136 12.9886 63.6353 13.5803 63.2016 14.3772C62.792 15.15 62.5872 16.1039 62.5872 17.2389V17.6012C62.5872 18.7362 62.792 19.7022 63.2016 20.4991C63.6353 21.2719 64.2136 21.8636 64.9364 22.2741C65.6833 22.6605 66.5145 22.8537 67.4301 22.8537C68.8034 22.8537 69.8394 22.5035 70.5382 21.8032C71.261 21.0787 71.7188 20.1369 71.9115 18.9777L76.3207 20.0282C76.0074 21.3081 75.4653 22.4794 74.6943 23.542C73.9474 24.5804 72.9596 25.4015 71.7308 26.0052C70.502 26.609 69.0323 26.9108 67.3217 26.9108Z" fill="#FF6701"/>
<path d="M86.9317 26.9108C85.1969 26.9108 83.6188 26.5486 82.1973 25.8241C80.7998 25.0996 79.6915 24.0491 78.8723 22.6726C78.0531 21.2961 77.6435 19.6297 77.6435 17.6736V17.1665C77.6435 15.2104 78.0531 13.5441 78.8723 12.1675C79.6915 10.791 80.7998 9.74051 82.1973 9.01603C83.6188 8.29154 85.1969 7.9293 86.9317 7.9293C88.6423 7.9293 90.112 8.23117 91.3408 8.83491C92.5696 9.43865 93.5574 10.2718 94.3044 11.3344C95.0754 12.3728 95.5813 13.5561 95.8223 14.8844L91.4131 15.8262C91.3167 15.1017 91.0999 14.4497 90.7626 13.8701C90.4253 13.2905 89.9434 12.8317 89.3169 12.4936C88.7146 12.1555 87.9557 11.9864 87.0401 11.9864C86.1245 11.9864 85.2933 12.1917 84.5464 12.6022C83.8236 12.9886 83.2453 13.5803 82.8117 14.3772C82.4021 15.15 82.1973 16.1039 82.1973 17.2389V17.6012C82.1973 18.7362 82.4021 19.7022 82.8117 20.4991C83.2453 21.2719 83.8236 21.8636 84.5464 22.2741C85.2933 22.6605 86.1245 22.8537 87.0401 22.8537C88.4134 22.8537 89.4495 22.5035 90.1482 21.8032C90.871 21.0787 91.3288 20.1369 91.5215 18.9777L95.9307 20.0282C95.6174 21.3081 95.0754 22.4794 94.3044 23.542C93.5574 24.5804 92.5696 25.4015 91.3408 26.0052C90.112 26.609 88.6423 26.9108 86.9317 26.9108Z" fill="#FF6701"/>
<path d="M98.1209 26.4037V8.43644H102.602V10.465H103.253C103.518 9.74051 103.952 9.20923 104.554 8.87113C105.18 8.53304 105.903 8.36399 106.722 8.36399H108.891V12.4211H106.65C105.494 12.4211 104.542 12.7351 103.795 13.3629C103.048 13.9667 102.675 14.9085 102.675 16.1884V26.4037H98.1209Z" fill="#FF6701"/>
<path d="M110.884 26.4037V8.43644H115.438V26.4037H110.884ZM113.161 6.33543C112.342 6.33543 111.643 6.06979 111.065 5.5385C110.511 5.00721 110.233 4.30687 110.233 3.43749C110.233 2.56811 110.511 1.86777 111.065 1.33649C111.643 0.805196 112.342 0.539551 113.161 0.539551C114.004 0.539551 114.703 0.805196 115.257 1.33649C115.811 1.86777 116.088 2.56811 116.088 3.43749C116.088 4.30687 115.811 5.00721 115.257 5.5385C114.703 6.06979 114.004 6.33543 113.161 6.33543Z" fill="#FF6701"/>
<path d="M118.918 33.6485V8.43644H123.399V10.6099H124.05C124.459 9.90956 125.098 9.29375 125.965 8.76246C126.833 8.20702 128.073 7.9293 129.688 7.9293C131.133 7.9293 132.47 8.29154 133.699 9.01603C134.928 9.71636 135.916 10.7548 136.663 12.1313C137.41 13.5078 137.783 15.1742 137.783 17.1303V17.7099C137.783 19.666 137.41 21.3323 136.663 22.7088C135.916 24.0853 134.928 25.1358 133.699 25.8603C132.47 26.5606 131.133 26.9108 129.688 26.9108C128.603 26.9108 127.688 26.778 126.941 26.5124C126.218 26.2709 125.628 25.9569 125.17 25.5705C124.736 25.16 124.387 24.7494 124.122 24.3389H123.471V33.6485H118.918ZM128.314 22.9261C129.736 22.9261 130.904 22.4794 131.82 21.5858C132.76 20.6682 133.229 19.3399 133.229 17.6012V17.2389C133.229 15.5002 132.76 14.184 131.82 13.2905C130.88 12.3728 129.712 11.914 128.314 11.914C126.917 11.914 125.748 12.3728 124.809 13.2905C123.869 14.184 123.399 15.5002 123.399 17.2389V17.6012C123.399 19.3399 123.869 20.6682 124.809 21.5858C125.748 22.4794 126.917 22.9261 128.314 22.9261Z" fill="#FF6701"/>
<path d="M146.665 26.4037C145.484 26.4037 144.521 26.0414 143.774 25.3169C143.051 24.5683 142.69 23.5782 142.69 22.3466V12.2038H138.208V8.43644H142.69V2.8579H147.243V8.43644H152.158V12.2038H147.243V21.5496C147.243 22.2741 147.581 22.6364 148.255 22.6364H151.725V26.4037H146.665Z" fill="#FF6701"/>
<path d="M161.748 26.9108C160.519 26.9108 159.399 26.7055 158.387 26.295C157.399 25.8603 156.616 25.2324 156.038 24.4113C155.459 23.5903 155.17 22.6001 155.17 21.441C155.17 20.2576 155.459 19.2796 156.038 18.5068C156.616 17.734 157.399 17.1544 158.387 16.768C159.374 16.3816 160.471 16.1884 161.675 16.1884H168.108V14.7757C168.108 13.3509 167.699 12.24 166.88 11.4431C166.06 10.6461 164.868 10.2477 163.302 10.2477C161.76 10.2477 160.531 10.634 159.615 11.4068C158.724 12.1555 158.122 13.1697 157.808 14.4497L155.712 13.8339C156.001 12.7954 156.459 11.8657 157.086 11.0446C157.712 10.1994 158.543 9.53524 159.579 9.05225C160.615 8.54511 161.856 8.29155 163.302 8.29155C165.518 8.29155 167.229 8.87113 168.434 10.0303C169.662 11.1895 170.277 12.8075 170.277 14.8844V23.4333C170.277 24.1578 170.614 24.52 171.289 24.52H172.987V26.4037H170.674C169.928 26.4037 169.337 26.1863 168.904 25.7516C168.47 25.2928 168.253 24.677 168.253 23.9042V23.6506H167.892C167.578 24.1819 167.169 24.7011 166.663 25.2083C166.181 25.7154 165.542 26.126 164.747 26.4399C163.952 26.7538 162.952 26.9108 161.748 26.9108ZM161.892 24.9547C163.748 24.9547 165.241 24.3993 166.374 23.2884C167.53 22.1534 168.108 20.5595 168.108 18.5068V18.0721H161.712C160.459 18.0721 159.411 18.3498 158.567 18.9053C157.748 19.4365 157.339 20.2697 157.339 21.4047C157.339 22.5398 157.76 23.4212 158.603 24.0491C159.471 24.6528 160.567 24.9547 161.892 24.9547Z" fill="#2A2A2A"/>
<path d="M172.105 17.6736V17.2389C172.105 15.3794 172.478 13.7856 173.225 12.4573C173.996 11.1291 175.02 10.1028 176.297 9.37827C177.574 8.65379 178.995 8.29155 180.561 8.29155C182.489 8.29155 183.983 8.67794 185.043 9.45072C186.127 10.1994 186.922 11.0567 187.428 12.0226H187.862V8.79868H189.886V30.8955C189.886 31.7649 189.657 32.4411 189.199 32.924C188.741 33.407 188.043 33.6485 187.103 33.6485H175.104V31.6924H186.669C187.416 31.6924 187.79 31.3302 187.79 30.6057V23.0348H187.356C187.043 23.6144 186.597 24.1819 186.019 24.7374C185.464 25.2928 184.742 25.7516 183.85 26.1139C182.959 26.452 181.862 26.621 180.561 26.621C178.995 26.621 177.562 26.2588 176.261 25.5343C174.984 24.8098 173.972 23.7835 173.225 22.4552C172.478 21.1029 172.105 19.509 172.105 17.6736ZM181.067 24.6649C183.067 24.6649 184.681 24.037 185.91 22.7812C187.163 21.5255 187.79 19.7988 187.79 17.6012V17.3114C187.79 15.0896 187.163 13.3629 185.91 12.1313C184.681 10.8755 183.067 10.2477 181.067 10.2477C179.092 10.2477 177.477 10.8755 176.225 12.1313C174.972 13.3629 174.345 15.0896 174.345 17.3114V17.6012C174.345 19.7988 174.972 21.5255 176.225 22.7812C177.477 24.037 179.092 24.6649 181.067 24.6649Z" fill="#2A2A2A"/>
<path d="M200.712 26.9108C198.905 26.9108 197.327 26.5365 195.977 25.7879C194.652 25.0151 193.616 23.9404 192.869 22.5639C192.122 21.1874 191.749 19.6056 191.749 17.8185V17.3838C191.749 15.5726 192.122 13.9908 192.869 12.6385C193.616 11.2619 194.64 10.1994 195.941 9.45072C197.266 8.67794 198.772 8.29155 200.459 8.29155C202.097 8.29155 203.543 8.64171 204.796 9.34205C206.073 10.0182 207.072 11.0084 207.795 12.3124C208.518 13.5924 208.88 15.1259 208.88 16.9129V18.0721H193.917C193.99 20.2697 194.652 21.9722 195.905 23.1797C197.182 24.363 198.784 24.9547 200.712 24.9547C202.35 24.9547 203.615 24.5804 204.506 23.8318C205.422 23.0831 206.121 22.1654 206.603 21.0787L208.554 21.9481C208.193 22.745 207.687 23.5299 207.036 24.3027C206.41 25.0513 205.591 25.6792 204.579 26.1863C203.567 26.6693 202.278 26.9108 200.712 26.9108ZM193.953 16.1884H206.675C206.579 14.2806 205.964 12.8196 204.832 11.8053C203.699 10.7669 202.242 10.2477 200.459 10.2477C198.7 10.2477 197.242 10.7669 196.086 11.8053C194.929 12.8196 194.219 14.2806 193.953 16.1884Z" fill="#2A2A2A"/>
<path d="M210.602 26.4037V8.79868H212.698V12.0589H213.132C213.565 11.117 214.276 10.2839 215.264 9.55939C216.252 8.81076 217.685 8.43644 219.565 8.43644C220.842 8.43644 222.01 8.70209 223.07 9.23337C224.13 9.76466 224.974 10.5737 225.6 11.6604C226.251 12.723 226.576 14.0633 226.576 15.6813V26.4037H224.408V15.8262C224.408 13.8942 223.926 12.5056 222.962 11.6604C221.998 10.8152 220.709 10.3925 219.095 10.3925C217.288 10.3925 215.782 10.9963 214.577 12.2038C213.373 13.3871 212.77 15.1862 212.77 17.6012V26.4037H210.602Z" fill="#2A2A2A"/>
<path d="M237.14 26.9108C235.429 26.9108 233.899 26.5486 232.55 25.8241C231.225 25.0755 230.177 24.0129 229.406 22.6364C228.635 21.2598 228.249 19.6418 228.249 17.7823V17.4201C228.249 15.5364 228.635 13.9184 229.406 12.566C230.177 11.1895 231.225 10.139 232.55 9.4145C233.899 8.66586 235.429 8.29155 237.14 8.29155C238.827 8.29155 240.248 8.61756 241.405 9.2696C242.585 9.89749 243.501 10.7306 244.151 11.7691C244.826 12.7834 245.248 13.858 245.416 14.993L243.284 15.4277C243.163 14.4859 242.862 13.6286 242.38 12.8558C241.899 12.0589 241.224 11.431 240.357 10.9721C239.489 10.4891 238.417 10.2477 237.14 10.2477C235.863 10.2477 234.719 10.5495 233.707 11.1533C232.695 11.7328 231.888 12.566 231.285 13.6527C230.707 14.7153 230.418 15.9832 230.418 17.4563V17.7461C230.418 19.2192 230.707 20.4991 231.285 21.5858C231.888 22.6484 232.695 23.4816 233.707 24.0853C234.719 24.6649 235.863 24.9547 237.14 24.9547C239.067 24.9547 240.537 24.4596 241.549 23.4695C242.561 22.4552 243.188 21.2236 243.428 19.7746L245.561 20.2093C245.344 21.3444 244.886 22.4311 244.187 23.4695C243.513 24.4838 242.585 25.3169 241.405 25.969C240.248 26.5969 238.827 26.9108 237.14 26.9108Z" fill="#2A2A2A"/>
<path d="M249.483 33.6485V31.6924H259.747C260.47 31.6924 260.832 31.3302 260.832 30.6057V23.3608H260.398C260.109 23.9404 259.699 24.4959 259.169 25.0272C258.663 25.5343 257.988 25.9569 257.145 26.295C256.326 26.609 255.29 26.7659 254.037 26.7659C252.784 26.7659 251.616 26.5003 250.532 25.969C249.471 25.4377 248.616 24.6408 247.966 23.5782C247.339 22.5156 247.026 21.1753 247.026 19.5573V8.79868H249.194V19.4124C249.194 21.3202 249.676 22.6967 250.64 23.542C251.604 24.3872 252.893 24.8098 254.507 24.8098C256.314 24.8098 257.82 24.2181 259.025 23.0348C260.229 21.8515 260.832 20.0524 260.832 17.6374V8.79868H263V30.8955C263 31.7649 262.759 32.4411 262.277 32.924C261.819 33.407 261.121 33.6485 260.181 33.6485H249.483Z" fill="#2A2A2A"/>
<path d="M7.66621 2.15791C7.66621 1.32432 8.34041 0.648568 9.17207 0.648568H13.8266C14.6582 0.648568 15.3324 1.32432 15.3324 2.15791V6.85206C15.3324 7.68565 14.6582 8.36141 13.8266 8.36141H7.66621V2.15791Z" fill="#FF6701"/>
<path d="M0 9.87075C0 9.03716 0.674195 8.36141 1.50586 8.36141H7.66621V14.5649C7.66621 15.3985 6.99202 16.0742 6.16036 16.0742H1.50586C0.674196 16.0742 0 15.3985 0 14.5649V9.87075Z" fill="#FF6701"/>
<path d="M43.3629 8.36141H49.5233C50.355 8.36141 51.0292 9.03716 51.0292 9.87075V14.5649C51.0292 15.3985 50.355 16.0742 49.5233 16.0742H44.8688C44.0371 16.0742 43.3629 15.3985 43.3629 14.5649V8.36141Z" fill="#FF6701"/>
<path d="M43.3629 21.5442C43.3629 20.7107 44.0371 20.0349 44.8688 20.0349H49.5233C50.355 20.0349 51.0292 20.7107 51.0292 21.5442V26.2384C51.0292 27.072 50.355 27.7477 49.5233 27.7477H43.3629V21.5442Z" fill="#FF6701"/>
<path d="M35.6967 29.2571C35.6967 28.4235 36.3709 27.7477 37.2026 27.7477H43.3629V33.9512C43.3629 34.7848 42.6888 35.4606 41.8571 35.4606H37.2026C36.3709 35.4606 35.6967 34.7848 35.6967 33.9512V29.2571Z" fill="#FF6701"/>
<path d="M7.66621 27.7477H13.8266C14.6582 27.7477 15.3324 28.4235 15.3324 29.2571V33.9512C15.3324 34.7848 14.6582 35.4606 13.8266 35.4606H9.17207C8.34041 35.4606 7.66621 34.7848 7.66621 33.9512V27.7477Z" fill="#FF6701"/>
<path d="M0 21.5442C0 20.7107 0.674195 20.0349 1.50586 20.0349H6.16036C6.99202 20.0349 7.66621 20.7107 7.66621 21.5442V27.7477H1.50586C0.674196 27.7477 0 27.072 0 26.2384V21.5442Z" fill="#FF6701"/>
<path d="M35.6967 2.15791C35.6967 1.32432 36.3709 0.648568 37.2026 0.648568H41.8571C42.6888 0.648568 43.3629 1.32432 43.3629 2.15791V8.36141H37.2026C36.3709 8.36141 35.6967 7.68565 35.6967 6.85206V2.15791Z" fill="#FF6701"/>
<path d="M27.1857 1.99749C27.401 1.19231 28.2267 0.714474 29.03 0.930222L31.2387 1.52341C32.042 1.73916 32.5188 2.56679 32.3035 3.37198L24.3185 33.2413C24.1033 34.0465 23.2776 34.5243 22.4742 34.3086L20.2655 33.7154C19.4622 33.4996 18.9855 32.672 19.2007 31.8668L27.1857 1.99749Z" fill="#2A2A2A"/>
</svg>
